<svg fill="none" xmlns:xlink="http://www.w3.org/1999/xlink" xmlns="http://www.w3.org/2000/svg" viewBox="0 0 512 512"><defs><linearGradient id="a"><stop offset="0" stop-color="#01579b"/><stop offset="1" stop-color="#40c4ff"/></linearGradient><linearGradient id="c" x1="194.65" y1="8.82" x2="236.08" y2="292.99" gradientUnits="userSpaceOnUse" gradientTransform="rotate(15.39 374.33 346.64) scale(1.41834)"><stop stop-color="#ffe665"/><stop offset=".08" stop-color="#f7cc00"/><stop offset="1" stop-color="#bd7d00"/></linearGradient><linearGradient xlink:href="#a" id="b" gradientUnits="userSpaceOnUse" x1="-970.57" y1="479.21" x2="-1068.29" y2="178.54" gradientTransform="translate(1450.7 -106.1) scale(1.26433)"/></defs><path d="M257 20c-28.71 9.64-51.55 32.25-77.85 47.25l-79.13 52.37C203.5 223.08 306.95 326.58 410.47 430.01c20.47-10.26 55.15-10.12 66.6-26.98l.14-176.95c-29.75-28.44-56.81-60-88.45-86.27-9.79-8.3-47.03-28.22-31.57.35l80.54 228.35c-29.1-82-57.57-164.2-87.06-246.05-12.17.83 7.62-4.34-4.6-13.49-6.93-31.44-38.1-47.64-57.68-70.89-9-8.21-18.3-17.81-31.4-18.08Zm-156.98 99.64c-32.67 49.28-65.23 98.64-97.97 147.89-7.21 27.47 22.1 43.64 37.33 61.49 15.7 16.9 31.32 34.86 55.38 38.68 4.54 1.47 11.94 5.88 5.95-2.2 7.74 11.79 22.8 10.59 34.44 16.43l213.79 75.39-245.8-86.67c9.84 44.13 49.74 69.9 78.56 101.33 13.63 10.06 22.27 32.17 41.87 27.8l164.43.2c2.52-25.13 22.47-69.97 22.47-69.97-101.04-101.04-209.4-209.34-310.45-310.37Z" fill="url(#b)" stroke="url(#b)" stroke-width="1.88"/><path d="M505.43 25.51 309.2 10.75a7.1 7.1 0 0 0-7.25 4.79l-64.7 190.3a7.1 7.1 0 0 0 6.42 9.37l55.14 2.3a7.1 7.1 0 0 1 6.02 10.3l-36.15 71.18a7.1 7.1 0 0 0 6.5 10.3l34.7-.91a7.1 7.1 0 0 1 6.5 10.31L259.3 430.43c-3.57 6.99 5.18 13.74 11.04 8.52l3.91-3.49L509.3 174.41a7.1 7.1 0 0 0-4.72-11.81l-56.2-4.39a7.1 7.1 0 0 1-5.49-10.77l68.06-111.16a7.1 7.1 0 0 0-5.52-10.77z" fill="url(#c)"/></svg>